<?xml version="1.0" encoding="utf-8"?>
<!-- Generator: Adobe Illustrator 19.2.1, SVG Export Plug-In . SVG Version: 6.00 Build 0)  -->
<svg version="1.1" id="Layer_1" xmlns="http://www.w3.org/2000/svg" xmlns:xlink="http://www.w3.org/1999/xlink" x="0px" y="0px"
	 width="256px" height="256px" viewBox="0 0 256 256" style="enable-background:new 0 0 256 256;" xml:space="preserve">
<path d="M100.9,14.2v151.6l-54.3-54.3c-5-5-13.1-5-18.1,0l-18.1,18.1c-5,5-5,13.1,0,18.1l99.5,99.5c10,10,26.2,10,36.2,0l99.5-99.5
	c5-5,5-13.1,0-18.1l-18.1-18.1c-5-5-13.1-5-18.1,0l-54.3,54.3V14.2c0-7-5.8-12.8-12.8-12.8h-28.7C106.6,1.4,100.9,7.2,100.9,14.2z"
	/> 
</svg>
