<?xml version="1.0" encoding="utf-8"?>
<svg version="1.1" id="Layer_1" xmlns="http://www.w3.org/2000/svg" xmlns:xlink="http://www.w3.org/1999/xlink" x="0px" y="0px"
	 width="256px" height="256px" viewBox="0 0 256 256" style="enable-background:new 0 0 256 256;" xml:space="preserve">
<path d="M155.3,242.6V90l54.6,54.6c5,5,13.2,5,18.2,0l18.2-18.2c5-5,5-13.2,0-18.2L146.2,8.1c-10-10-26.4-10-36.4,0L9.7,108.2
	c-5,5-5,13.2,0,18.2l18.2,18.2c5,5,13.2,5,18.2,0L100.7,90v152.6c0,7.1,5.8,12.9,12.9,12.9h28.9
	C149.5,255.4,155.3,249.6,155.3,242.6z"/>
</svg>